<svg xmlns="http://www.w3.org/2000/svg">
    <defs>
        <symbol id="icon-settings" viewBox="0 0 24 24" fill="currentColor">
            <path d="M20.1 9.22C18.29 9.22 17.55 7.94 18.45 6.37C18.97 5.46 18.66 4.3 17.75 3.78L16.02 2.79C15.23 2.32 14.21 2.6 13.74 3.39L13.63 3.58C12.73 5.15 11.25 5.15 10.34 3.58L10.23 3.39C9.78 2.6 8.76 2.32 7.97 2.79L6.24 3.78C5.33 4.3 5.02 5.47 5.54 6.38C6.45 7.94 5.71 9.22 3.9 9.22C2.86 9.22 2 10.07 2 11.12V12.88C2 13.92 2.85 14.78 3.9 14.78C5.71 14.78 6.45 16.06 5.54 17.63C5.02 18.54 5.33 19.7 6.24 20.22L7.97 21.21C8.76 21.68 9.78 21.4 10.25 20.61L10.36 20.42C11.26 18.85 12.74 18.85 13.65 20.42L13.76 20.61C14.23 21.4 15.25 21.68 16.04 21.21L17.77 20.22C18.68 19.7 18.99 18.53 18.47 17.63C17.56 16.06 18.3 14.78 20.11 14.78C21.15 14.78 22.01 13.93 22.01 12.88V11.12C22 10.08 21.15 9.22 20.1 9.22ZM12 15.25C10.21 15.25 8.75 13.79 8.75 12C8.75 10.21 10.21 8.75 12 8.75C13.79 8.75 15.25 10.21 15.25 12C15.25 13.79 13.79 15.25 12 15.25Z"/>
        </symbol>
        <symbol id="icon-car" viewBox="0 0 24 24" fill="currentColor">
            <path d="M21.75 8C21.75 8.41 21.41 8.75 21 8.75H3C2.59 8.75 2.25 8.41 2.25 8C2.25 7.59 2.59 7.25 3 7.25H4.02L4.4 5.44C4.76 3.69 5.51 2.08 8.49 2.08H15.51C18.49 2.08 19.24 3.69 19.6 5.44L19.98 7.25H21C21.41 7.25 21.75 7.59 21.75 8Z"/>
            <path d="M22.18 13.66C22.03 12.01 21.59 10.25 18.38 10.25H5.62C2.41 10.25 1.98 12.01 1.82 13.66L1.26 19.75C1.19 20.51 1.44 21.27 1.96 21.84C2.49 22.42 3.24 22.75 4.04 22.75H5.92C7.54 22.75 7.85 21.82 8.05 21.21L8.25 20.61C8.48 19.92 8.54 19.75 9.44 19.75H14.56C15.46 19.75 15.49 19.85 15.75 20.61L15.95 21.21C16.15 21.82 16.46 22.75 18.08 22.75H19.96C20.75 22.75 21.51 22.42 22.04 21.84C22.56 21.27 22.81 20.51 22.74 19.75L22.18 13.66ZM9 15.75H6C5.59 15.75 5.25 15.41 5.25 15C5.25 14.59 5.59 14.25 6 14.25H9C9.41 14.25 9.75 14.59 9.75 15C9.75 15.41 9.41 15.75 9 15.75ZM18 15.75H15C14.59 15.75 14.25 15.41 14.25 15C14.25 14.59 14.59 14.25 15 14.25H18C18.41 14.25 18.75 14.59 18.75 15C18.75 15.41 18.41 15.75 18 15.75Z"/>
        </symbol>
        <symbol id="icon-map" viewBox="0 0 24 24" fill="currentColor">
            <path d="M20.62 8.45C19.57 3.83 15.54 1.75 12 1.75C12 1.75 12 1.75 11.99 1.75C8.46 1.75 4.42 3.82 3.37 8.44C2.2 13.6 5.36 17.97 8.22 20.72C9.28 21.74 10.64 22.25 12 22.25C13.36 22.25 14.72 21.74 15.77 20.72C18.63 17.97 21.79 13.61 20.62 8.45ZM12 13.46C10.26 13.46 8.85 12.05 8.85 10.31C8.85 8.57 10.26 7.16 12 7.16C13.74 7.16 15.15 8.57 15.15 10.31C15.15 12.05 13.74 13.46 12 13.46Z"/>
        </symbol>
    </defs>
</svg>